<svg width="36" height="36" viewBox="0 0 36 36" fill="none" xmlns="http://www.w3.org/2000/svg">
<path d="M26.8485 27.9465C27.455 27.9465 27.9468 27.4547 27.9468 26.848V9.14379C27.9468 8.53707 27.4551 8.04541 26.8485 8.04541H9.14428C8.53756 8.04541 8.0459 8.53707 8.0459 9.14379V26.848C8.0459 27.4546 8.53748 27.9465 9.14428 27.9465H26.8485Z" fill="#202124"/>
<path d="M21.7761 27.9465V20.2397H24.3629L24.7503 17.2362H21.7761V15.3187C21.7761 14.4491 22.0176 13.8565 23.2645 13.8565L24.855 13.8558V11.1695C24.5799 11.1329 23.6358 11.0511 22.5374 11.0511C20.2444 11.0511 18.6745 12.4508 18.6745 15.0212V17.2362H16.0811V20.2397H18.6745V27.9465H21.7761Z" fill="white"/>
</svg>
