<svg width="36" height="36" viewBox="0 0 36 36" fill="none" xmlns="http://www.w3.org/2000/svg">
<path d="M8 9.44177C8 8.64572 8.66169 8 9.47796 8H26.522C27.3383 8 28 8.64572 28 9.44177V26.6851C28 27.4814 27.3383 28.1269 26.522 28.1269H9.47796C8.66169 28.1269 8 27.4814 8 26.6851V9.44177Z" fill="#202124"/>
<path fill-rule="evenodd" clip-rule="evenodd" d="M14.0627 24.8483V15.7599H11.0419V24.8483H14.0627ZM12.5523 14.519C13.6057 14.519 14.2613 13.8211 14.2613 12.949C14.2417 12.0572 13.6057 11.3786 12.5722 11.3786C11.5389 11.3786 10.8633 12.0572 10.8633 12.949C10.8633 13.8211 11.5188 14.519 12.5326 14.519H12.5522H12.5523Z" fill="white"/>
<path fill-rule="evenodd" clip-rule="evenodd" d="M15.7344 24.8483H18.7552V19.7729C18.7552 19.5013 18.7748 19.23 18.8546 19.0358C19.0729 18.4931 19.57 17.931 20.4045 17.931C21.4976 17.931 21.9349 18.7644 21.9349 19.9862V24.8483H24.9554V19.6371C24.9554 16.8456 23.4651 15.5466 21.4776 15.5466C19.848 15.5466 19.1326 16.4575 18.7351 17.0779H18.7552V15.7599H15.7345C15.7741 16.6127 15.7345 24.8483 15.7345 24.8483H15.7344Z" fill="white"/>
</svg>
