<?xml version="1.0" encoding="utf-8"?>
<!DOCTYPE svg PUBLIC "-//W3C//DTD SVG 1.1//EN" "http://www.w3.org/Graphics/SVG/1.1/DTD/svg11.dtd">
<svg version="1.1" id="Capa_2" xmlns="http://www.w3.org/2000/svg" xmlns:xlink="http://www.w3.org/1999/xlink" x="0px" y="0px"
	 width="500px" height="60px" viewBox="0 0 500 60" enable-background="new 0 0 500 60" xml:space="preserve">
<g>
	<path d="M10.118,38.104l9.469-20.698h0.873l9.469,20.698h-1.657l-3.27-7.086H15.03l-3.255,7.086H10.118z M15.637,29.686h8.788
		l-4.423-9.69L15.637,29.686z"/>
	<path d="M34.782,38.09c-1.519-0.355-2.279-0.996-2.279-1.924c0-0.493,0.217-0.928,0.651-1.303c0.434-0.374,1.085-0.695,1.953-0.961
		c-0.888-0.158-1.696-0.646-2.426-1.465c-0.72-0.828-1.08-1.854-1.08-3.077c0-1.391,0.483-2.53,1.45-3.418
		c0.966-0.888,2.392-1.332,4.275-1.332h5.386v1.184H39.62c0.562,0.346,1.016,0.858,1.361,1.539c0.355,0.68,0.533,1.356,0.533,2.027
		c0,1.184-0.325,2.18-0.977,2.988c-0.641,0.81-1.746,1.392-3.314,1.746l-1.642,0.458c-1.125,0.316-1.687,0.805-1.687,1.465
		c0,0.404,0.192,0.721,0.577,0.947c0.385,0.227,1.268,0.39,2.648,0.488l1.554,0.089c2.683,0.207,4.024,1.366,4.024,3.477
		c0,1.321-0.557,2.313-1.672,2.974c-1.115,0.651-2.594,0.977-4.438,0.977c-1.707,0-3.083-0.296-4.127-0.888
		c-1.135-0.632-1.702-1.519-1.702-2.663c0-0.779,0.286-1.449,0.858-2.012C32.188,38.834,33.243,38.395,34.782,38.09z M32.148,41.285
		c0,1.646,1.529,2.471,4.586,2.471c1.302,0,2.387-0.223,3.255-0.666c0.878-0.443,1.317-1.095,1.317-1.953
		c0-1.549-1.455-2.322-4.365-2.322C33.746,38.814,32.148,39.638,32.148,41.285z M32.991,29.316c0,1.006,0.326,1.87,0.977,2.588
		c0.651,0.711,1.504,1.066,2.56,1.066c1.036,0,1.894-0.307,2.574-0.918c0.681-0.621,1.021-1.514,1.021-2.678
		c0-1.016-0.375-1.859-1.125-2.53c-0.74-0.681-1.573-1.021-2.5-1.021c-1.016,0-1.854,0.34-2.516,1.021
		C33.322,27.526,32.991,28.349,32.991,29.316z"/>
	<path d="M45.907,30.869c-0.02,0.207-0.029,0.404-0.029,0.592c0,1.578,0.522,2.891,1.568,3.936c1.056,1.045,2.338,1.568,3.847,1.568
		c0.917,0,1.726-0.143,2.426-0.43c0.71-0.295,1.568-0.828,2.575-1.598v1.628c-1.509,1.213-3.255,1.819-5.238,1.819
		c-2.002,0-3.625-0.71-4.867-2.131c-1.233-1.42-1.85-3.105-1.85-5.059c0-1.924,0.577-3.546,1.731-4.868
		c1.164-1.332,2.648-1.997,4.454-1.997c1.736,0,3.171,0.592,4.305,1.775c1.134,1.174,1.702,2.762,1.702,4.764H45.907z
		 M46.085,29.686h8.714c-0.552-2.624-1.973-3.935-4.261-3.935c-1.174,0-2.15,0.36-2.929,1.08
		C46.839,27.541,46.331,28.492,46.085,29.686z"/>
	<path d="M59.533,38.104V24.611h1.45v2.56c0.582-0.917,1.248-1.617,1.997-2.101c0.75-0.493,1.627-0.74,2.633-0.74
		c1.489,0,2.708,0.468,3.655,1.405c0.947,0.927,1.42,2.308,1.42,4.143v8.226h-1.45v-7.811c0-3.028-1.238-4.542-3.713-4.542
		c-1.825,0-3.339,0.966-4.542,2.899v9.454H59.533z"/>
	<path d="M84.33,36.166v1.523c-1.213,0.464-2.422,0.695-3.625,0.695c-2.111,0-3.792-0.621-5.045-1.863
		c-1.253-1.253-1.879-2.9-1.879-4.941c0-2.111,0.616-3.847,1.849-5.208s2.841-2.042,4.823-2.042c0.562,0,1.11,0.054,1.642,0.163
		c0.542,0.099,1.204,0.266,1.983,0.503v1.598c-1.361-0.563-2.55-0.843-3.566-0.843c-1.588,0-2.851,0.532-3.787,1.598
		c-0.938,1.056-1.406,2.407-1.406,4.054c0,1.686,0.474,3.037,1.42,4.053c0.957,1.007,2.269,1.51,3.936,1.51
		C81.76,36.965,82.978,36.699,84.33,36.166z"/>
	<path d="M87.259,17.628h1.45v2.485h-1.45V17.628z M87.259,24.611h1.45v13.493h-1.45V24.611z"/>
	<path d="M99.982,28.339c0-1.864-1.045-2.796-3.136-2.796c-1.292,0-2.678,0.542-4.157,1.627v-1.42
		c1.647-0.947,3.106-1.42,4.379-1.42c1.352,0,2.417,0.306,3.196,0.917c0.779,0.612,1.169,1.49,1.169,2.634v8.344
		c0,0.494,0.094,0.74,0.281,0.74c0.335,0,1.001-0.395,1.998-1.184v1.213c-0.523,0.375-1.011,0.701-1.465,0.977
		c-0.444,0.276-0.843,0.414-1.198,0.414h-0.118c-0.572,0-0.888-0.552-0.947-1.656c-1.312,1.104-2.767,1.656-4.364,1.656
		c-0.986,0-1.85-0.325-2.589-0.977c-0.73-0.65-1.095-1.469-1.095-2.455c0-1.52,0.745-2.708,2.234-3.566
		c1.499-0.867,3.437-1.321,5.814-1.361V28.339z M99.982,31.239c-0.296-0.02-0.493-0.03-0.592-0.03c-1.667,0-3.087,0.336-4.261,1.007
		c-1.164,0.671-1.746,1.578-1.746,2.722c0,0.682,0.271,1.224,0.813,1.628c0.552,0.404,1.243,0.606,2.071,0.606
		c1.203,0,2.441-0.572,3.713-1.717V31.239z"/>
	<path d="M114.614,38.104V17.509h11.318v1.332h-9.706v8.271h9.454v1.332h-9.454v8.33h9.957v1.331H114.614z"/>
	<path d="M128.3,35.781c1.459,0.789,2.89,1.184,4.29,1.184c0.868,0,1.568-0.227,2.101-0.681s0.799-1.016,0.799-1.687
		c0-0.957-0.725-1.727-2.175-2.309l-1.657-0.695c-2.18-0.877-3.27-2.071-3.27-3.58c0-1.036,0.429-1.908,1.287-2.619
		c0.858-0.71,1.899-1.065,3.122-1.065c1.016,0,2.234,0.404,3.654,1.213v1.627c-1.509-1.006-2.762-1.509-3.758-1.509
		c-0.878,0-1.583,0.232-2.116,0.695c-0.533,0.464-0.799,0.996-0.799,1.598c0,0.542,0.212,1.001,0.636,1.376
		c0.424,0.365,1.061,0.72,1.909,1.065l1.243,0.532c1.154,0.435,1.992,0.932,2.515,1.495c0.533,0.562,0.799,1.312,0.799,2.249
		c0,1.124-0.454,2.027-1.361,2.707c-0.897,0.671-1.929,1.006-3.092,1.006c-1.411,0-2.787-0.404-4.127-1.213V35.781z"/>
	<path d="M137.207,25.794v-1.184h3.654v-3.225l0.991-1.272h0.458v4.498h3.788v1.184h-3.788v8.641v0.695
		c0,0.689,0.167,1.168,0.503,1.435s0.833,0.399,1.495,0.399c0.67,0,1.504-0.223,2.5-0.666v1.391
		c-0.829,0.464-1.766,0.695-2.811,0.695c-0.967,0-1.731-0.246-2.293-0.739c-0.563-0.503-0.843-1.204-0.843-2.101v-0.104v-9.647
		H137.207z"/>
	<path d="M156.055,28.339c0-1.864-1.045-2.796-3.136-2.796c-1.292,0-2.678,0.542-4.157,1.627v-1.42
		c1.647-0.947,3.106-1.42,4.379-1.42c1.352,0,2.417,0.306,3.196,0.917c0.779,0.612,1.169,1.49,1.169,2.634v8.344
		c0,0.494,0.094,0.74,0.281,0.74c0.335,0,1.001-0.395,1.998-1.184v1.213c-0.523,0.375-1.011,0.701-1.465,0.977
		c-0.444,0.276-0.843,0.414-1.198,0.414h-0.118c-0.572,0-0.888-0.552-0.947-1.656c-1.312,1.104-2.767,1.656-4.364,1.656
		c-0.986,0-1.85-0.325-2.589-0.977c-0.73-0.65-1.095-1.469-1.095-2.455c0-1.52,0.745-2.708,2.234-3.566
		c1.499-0.867,3.437-1.321,5.814-1.361V28.339z M156.055,31.239c-0.296-0.02-0.493-0.03-0.592-0.03
		c-1.667,0-3.087,0.336-4.261,1.007c-1.164,0.671-1.746,1.578-1.746,2.722c0,0.682,0.271,1.224,0.813,1.628
		c0.552,0.404,1.243,0.606,2.071,0.606c1.203,0,2.441-0.572,3.713-1.717V31.239z"/>
	<path d="M159.28,25.794v-1.184h3.654v-3.225l0.991-1.272h0.458v4.498h3.788v1.184h-3.788v8.641v0.695
		c0,0.689,0.167,1.168,0.503,1.435s0.833,0.399,1.495,0.399c0.67,0,1.504-0.223,2.5-0.666v1.391
		c-0.829,0.464-1.766,0.695-2.811,0.695c-0.967,0-1.731-0.246-2.293-0.739c-0.563-0.503-0.843-1.204-0.843-2.101v-0.104v-9.647
		H159.28z"/>
	<path d="M178.128,28.339c0-1.864-1.045-2.796-3.136-2.796c-1.292,0-2.678,0.542-4.157,1.627v-1.42
		c1.647-0.947,3.106-1.42,4.379-1.42c1.352,0,2.417,0.306,3.196,0.917c0.779,0.612,1.169,1.49,1.169,2.634v8.344
		c0,0.494,0.094,0.74,0.281,0.74c0.335,0,1.001-0.395,1.998-1.184v1.213c-0.523,0.375-1.011,0.701-1.465,0.977
		c-0.444,0.276-0.843,0.414-1.198,0.414h-0.118c-0.572,0-0.888-0.552-0.947-1.656c-1.312,1.104-2.767,1.656-4.364,1.656
		c-0.986,0-1.85-0.325-2.589-0.977c-0.73-0.65-1.095-1.469-1.095-2.455c0-1.52,0.745-2.708,2.234-3.566
		c1.499-0.867,3.437-1.321,5.814-1.361V28.339z M178.128,31.239c-0.296-0.02-0.493-0.03-0.592-0.03
		c-1.667,0-3.087,0.336-4.261,1.007c-1.164,0.671-1.746,1.578-1.746,2.722c0,0.682,0.271,1.224,0.813,1.628
		c0.552,0.404,1.243,0.606,2.071,0.606c1.203,0,2.441-0.572,3.713-1.717V31.239z"/>
	<path d="M184.032,38.104V17.509h1.45v20.594H184.032z"/>
	<path fill="#123A63" d="M198.457,38.104V17.509h4.542c2.19,0,3.827,0.503,4.912,1.509s1.627,2.264,1.627,3.773
		c0,2.062-1.001,3.59-3.003,4.586c3.206,0.612,4.808,2.373,4.808,5.283c0,1.695-0.641,3.027-1.923,3.994
		c-1.272,0.967-2.895,1.449-4.868,1.449H198.457z M200.07,27.008h2.382c3.57,0,5.356-1.361,5.356-4.083s-1.845-4.083-5.533-4.083
		h-2.205V27.008z M200.07,36.772h4.364c1.618,0,2.885-0.374,3.803-1.124c0.917-0.76,1.375-1.781,1.375-3.063
		c0-1.41-0.498-2.471-1.494-3.181c-0.996-0.71-2.436-1.065-4.32-1.065h-3.729V36.772z"/>
	<path fill="#123A63" d="M213.385,31.416c0-2.021,0.656-3.708,1.968-5.059c1.312-1.351,2.964-2.027,4.956-2.027
		c1.943,0,3.581,0.661,4.912,1.982c1.341,1.312,2.012,2.974,2.012,4.986c0,2.002-0.651,3.684-1.953,5.045s-2.959,2.041-4.971,2.041
		c-1.953,0-3.595-0.66-4.927-1.982C214.051,35.081,213.385,33.419,213.385,31.416z M214.924,31.357c0,1.627,0.527,2.969,1.583,4.024
		c1.065,1.056,2.347,1.583,3.847,1.583c1.548,0,2.826-0.527,3.832-1.583c1.006-1.056,1.509-2.367,1.509-3.936
		c0-1.657-0.523-3.018-1.568-4.083c-1.036-1.075-2.308-1.612-3.817-1.612c-1.489,0-2.762,0.522-3.817,1.568
		C215.446,28.354,214.924,29.701,214.924,31.357z"/>
	<path fill="#123A63" d="M230.651,38.104V17.509h1.45v20.594H230.651z"/>
	<path fill="#123A63" d="M236.998,30.869c-0.02,0.207-0.029,0.404-0.029,0.592c0,1.578,0.522,2.891,1.568,3.936
		c1.056,1.045,2.338,1.568,3.847,1.568c0.917,0,1.726-0.143,2.426-0.43c0.71-0.295,1.568-0.828,2.575-1.598v1.628
		c-1.509,1.213-3.255,1.819-5.238,1.819c-2.002,0-3.625-0.71-4.867-2.131c-1.233-1.42-1.85-3.105-1.85-5.059
		c0-1.924,0.577-3.546,1.731-4.868c1.164-1.332,2.648-1.997,4.454-1.997c1.736,0,3.171,0.592,4.305,1.775
		c1.134,1.174,1.702,2.762,1.702,4.764H236.998z M237.176,29.686h8.714c-0.552-2.624-1.973-3.935-4.261-3.935
		c-1.174,0-2.15,0.36-2.929,1.08C237.93,27.541,237.422,28.492,237.176,29.686z"/>
	<path fill="#123A63" d="M248.183,25.794v-1.184h3.655v-3.225l0.99-1.272h0.459v4.498h3.787v1.184h-3.787v8.641v0.695
		c0,0.689,0.168,1.168,0.503,1.435s0.833,0.399,1.495,0.399c0.67,0,1.504-0.223,2.5-0.666v1.391
		c-0.829,0.464-1.766,0.695-2.812,0.695c-0.967,0-1.731-0.246-2.293-0.739c-0.563-0.503-0.843-1.204-0.843-2.101v-0.104v-9.647
		H248.183z"/>
	<path fill="#123A63" d="M259.086,22.436l3.227-4.734h2.455l-4.675,4.734H259.086z M260.004,24.611h1.449v13.493h-1.449V24.611z"/>
	<path fill="#123A63" d="M265.463,38.104V24.611h1.45v2.56c0.582-0.917,1.247-1.617,1.997-2.101c0.749-0.493,1.627-0.74,2.634-0.74
		c1.489,0,2.707,0.468,3.654,1.405c0.946,0.927,1.42,2.308,1.42,4.143v8.226h-1.45v-7.811c0-3.028-1.237-4.542-3.713-4.542
		c-1.825,0-3.339,0.966-4.542,2.899v9.454H265.463z"/>
	<path fill="#123A63" d="M288.41,27.807c0-3.117,1.085-5.667,3.255-7.649s4.699-2.974,7.59-2.974c3.116,0,5.73,1.041,7.841,3.122
		c2.11,2.071,3.166,4.572,3.166,7.501c0,2.939-1.065,5.445-3.195,7.516c-2.121,2.072-4.7,3.107-7.738,3.107
		c-2.909,0-5.459-0.992-7.648-2.975C289.5,33.463,288.41,30.914,288.41,27.807z M290.141,27.792c0,2.683,0.928,4.872,2.782,6.569
		c1.854,1.696,3.994,2.545,6.421,2.545c2.485,0,4.636-0.849,6.45-2.545c1.824-1.697,2.737-3.892,2.737-6.584
		c0-2.673-0.913-4.858-2.737-6.554c-1.825-1.707-3.979-2.56-6.466-2.56c-2.466,0-4.615,0.858-6.45,2.574
		C291.053,22.954,290.141,25.139,290.141,27.792z"/>
	<path fill="#123A63" d="M312.037,24.611h2.604v-2.293c0-1.539,0.443-2.767,1.331-3.684c0.888-0.927,1.987-1.391,3.3-1.391
		c0.749,0,1.583,0.192,2.5,0.577v1.361c-0.907-0.345-1.736-0.518-2.485-0.518c-2.131,0-3.195,1.371-3.195,4.113v1.834h2.604v1.184
		h-2.604v12.309h-1.45V25.794h-2.604V24.611z"/>
	<path fill="#123A63" d="M321.195,17.628h1.45v2.485h-1.45V17.628z M321.195,24.611h1.45v13.493h-1.45V24.611z"/>
	<path fill="#123A63" d="M336.598,36.166v1.523c-1.213,0.464-2.422,0.695-3.625,0.695c-2.11,0-3.793-0.621-5.045-1.863
		c-1.253-1.253-1.879-2.9-1.879-4.941c0-2.111,0.616-3.847,1.85-5.208c1.232-1.361,2.84-2.042,4.823-2.042
		c0.562,0,1.109,0.054,1.642,0.163c0.543,0.099,1.203,0.266,1.982,0.503v1.598c-1.36-0.563-2.55-0.843-3.565-0.843
		c-1.588,0-2.851,0.532-3.787,1.598c-0.938,1.056-1.406,2.407-1.406,4.054c0,1.686,0.474,3.037,1.421,4.053
		c0.956,1.007,2.269,1.51,3.936,1.51C334.028,36.965,335.246,36.699,336.598,36.166z"/>
	<path fill="#123A63" d="M339.526,17.628h1.45v2.485h-1.45V17.628z M339.526,24.611h1.45v13.493h-1.45V24.611z"/>
	<path fill="#123A63" d="M352.251,28.339c0-1.864-1.046-2.796-3.137-2.796c-1.292,0-2.678,0.542-4.157,1.627v-1.42
		c1.646-0.947,3.106-1.42,4.379-1.42c1.352,0,2.417,0.306,3.196,0.917c0.778,0.612,1.168,1.49,1.168,2.634v8.344
		c0,0.494,0.094,0.74,0.281,0.74c0.335,0,1.001-0.395,1.997-1.184v1.213c-0.522,0.375-1.011,0.701-1.464,0.977
		c-0.444,0.276-0.844,0.414-1.198,0.414h-0.119c-0.572,0-0.888-0.552-0.946-1.656c-1.313,1.104-2.767,1.656-4.365,1.656
		c-0.986,0-1.849-0.325-2.589-0.977c-0.729-0.65-1.095-1.469-1.095-2.455c0-1.52,0.745-2.708,2.234-3.566
		c1.499-0.867,3.438-1.321,5.814-1.361V28.339z M352.251,31.239c-0.296-0.02-0.493-0.03-0.592-0.03
		c-1.667,0-3.088,0.336-4.261,1.007c-1.164,0.671-1.746,1.578-1.746,2.722c0,0.682,0.271,1.224,0.813,1.628
		c0.553,0.404,1.243,0.606,2.071,0.606c1.203,0,2.441-0.572,3.714-1.717V31.239z"/>
	<path fill="#123A63" d="M358.153,38.104V17.509h1.45v20.594H358.153z"/>
	<path fill="#123A63" d="M382.284,25.514v-8.004h1.45v20.594h-1.45v-1.139c-1.213,0.947-2.53,1.42-3.95,1.42
		c-1.992,0-3.649-0.676-4.971-2.026c-1.313-1.361-1.968-3.048-1.968-5.06c0-1.973,0.646-3.625,1.938-4.957
		c1.302-1.341,2.954-2.012,4.956-2.012C379.493,24.33,380.824,24.725,382.284,25.514z M372.934,31.225
		c0,1.706,0.553,3.092,1.657,4.157c1.104,1.056,2.466,1.583,4.083,1.583c1.164,0,2.367-0.443,3.61-1.332v-8.477
		c-1.342-0.937-2.644-1.405-3.906-1.405c-1.677,0-3.003,0.542-3.979,1.627C373.422,28.453,372.934,29.735,372.934,31.225z"/>
	<path fill="#123A63" d="M388.365,30.869c-0.02,0.207-0.029,0.404-0.029,0.592c0,1.578,0.522,2.891,1.568,3.936
		c1.055,1.045,2.337,1.568,3.847,1.568c0.917,0,1.726-0.143,2.426-0.43c0.71-0.295,1.568-0.828,2.574-1.598v1.628
		c-1.509,1.213-3.255,1.819-5.237,1.819c-2.002,0-3.624-0.71-4.867-2.131c-1.233-1.42-1.85-3.105-1.85-5.059
		c0-1.924,0.577-3.546,1.731-4.868c1.163-1.332,2.648-1.997,4.453-1.997c1.735,0,3.171,0.592,4.305,1.775
		c1.135,1.174,1.702,2.762,1.702,4.764H388.365z M388.543,29.686h8.714c-0.553-2.624-1.973-3.935-4.261-3.935
		c-1.174,0-2.15,0.36-2.93,1.08C389.298,27.541,388.789,28.492,388.543,29.686z"/>
	<path fill="#123A63" d="M402.228,38.104V17.509h1.45v20.594H402.228z"/>
	<path fill="#123A63" d="M416.653,38.104V17.509h11.317v1.332h-9.705v8.271h9.454v1.332h-9.454v8.33h9.957v1.331H416.653z"/>
	<path fill="#123A63" d="M430.339,35.781c1.459,0.789,2.89,1.184,4.29,1.184c0.868,0,1.568-0.227,2.102-0.681
		c0.532-0.454,0.799-1.016,0.799-1.687c0-0.957-0.726-1.727-2.175-2.309l-1.657-0.695c-2.18-0.877-3.27-2.071-3.27-3.58
		c0-1.036,0.429-1.908,1.287-2.619c0.857-0.71,1.898-1.065,3.121-1.065c1.016,0,2.234,0.404,3.654,1.213v1.627
		c-1.509-1.006-2.762-1.509-3.758-1.509c-0.878,0-1.583,0.232-2.115,0.695c-0.533,0.464-0.799,0.996-0.799,1.598
		c0,0.542,0.212,1.001,0.636,1.376c0.424,0.365,1.061,0.72,1.909,1.065l1.242,0.532c1.154,0.435,1.992,0.932,2.516,1.495
		c0.532,0.562,0.799,1.312,0.799,2.249c0,1.124-0.454,2.027-1.361,2.707c-0.897,0.671-1.929,1.006-3.092,1.006
		c-1.411,0-2.787-0.404-4.128-1.213V35.781z"/>
	<path fill="#123A63" d="M439.245,25.794v-1.184h3.654v-3.225l0.991-1.272h0.459v4.498h3.787v1.184h-3.787v8.641v0.695
		c0,0.689,0.168,1.168,0.503,1.435s0.834,0.399,1.494,0.399c0.671,0,1.504-0.223,2.501-0.666v1.391
		c-0.829,0.464-1.766,0.695-2.812,0.695c-0.967,0-1.73-0.246-2.293-0.739c-0.563-0.503-0.844-1.204-0.844-2.101v-0.104v-9.647
		H439.245z"/>
	<path fill="#123A63" d="M458.095,28.339c0-1.864-1.046-2.796-3.137-2.796c-1.292,0-2.678,0.542-4.157,1.627v-1.42
		c1.646-0.947,3.106-1.42,4.379-1.42c1.352,0,2.417,0.306,3.196,0.917c0.778,0.612,1.168,1.49,1.168,2.634v8.344
		c0,0.494,0.094,0.74,0.281,0.74c0.335,0,1.001-0.395,1.997-1.184v1.213c-0.522,0.375-1.011,0.701-1.464,0.977
		c-0.444,0.276-0.844,0.414-1.198,0.414h-0.119c-0.572,0-0.888-0.552-0.946-1.656c-1.313,1.104-2.767,1.656-4.365,1.656
		c-0.986,0-1.849-0.325-2.589-0.977c-0.729-0.65-1.095-1.469-1.095-2.455c0-1.52,0.745-2.708,2.234-3.566
		c1.499-0.867,3.438-1.321,5.814-1.361V28.339z M458.095,31.239c-0.296-0.02-0.493-0.03-0.592-0.03
		c-1.667,0-3.088,0.336-4.261,1.007c-1.164,0.671-1.746,1.578-1.746,2.722c0,0.682,0.271,1.224,0.813,1.628
		c0.553,0.404,1.243,0.606,2.071,0.606c1.203,0,2.441-0.572,3.714-1.717V31.239z"/>
	<path fill="#123A63" d="M474.014,25.514v-8.004h1.45v20.594h-1.45v-1.139c-1.213,0.947-2.53,1.42-3.95,1.42
		c-1.992,0-3.649-0.676-4.971-2.026c-1.313-1.361-1.968-3.048-1.968-5.06c0-1.973,0.646-3.625,1.938-4.957
		c1.302-1.341,2.954-2.012,4.956-2.012C471.223,24.33,472.554,24.725,474.014,25.514z M464.663,31.225
		c0,1.706,0.553,3.092,1.657,4.157c1.104,1.056,2.466,1.583,4.083,1.583c1.164,0,2.367-0.443,3.61-1.332v-8.477
		c-1.342-0.937-2.644-1.405-3.906-1.405c-1.677,0-3.003,0.542-3.979,1.627C465.151,28.453,464.663,29.735,464.663,31.225z"/>
	<path fill="#123A63" d="M478.601,31.416c0-2.021,0.655-3.708,1.968-5.059c1.312-1.351,2.964-2.027,4.956-2.027
		c1.943,0,3.58,0.661,4.912,1.982c1.341,1.312,2.012,2.974,2.012,4.986c0,2.002-0.65,3.684-1.952,5.045
		c-1.303,1.361-2.959,2.041-4.972,2.041c-1.953,0-3.595-0.66-4.927-1.982C479.267,35.081,478.601,33.419,478.601,31.416z
		 M480.139,31.357c0,1.627,0.528,2.969,1.584,4.024c1.064,1.056,2.347,1.583,3.847,1.583c1.548,0,2.825-0.527,3.831-1.583
		c1.007-1.056,1.51-2.367,1.51-3.936c0-1.657-0.523-3.018-1.568-4.083c-1.036-1.075-2.309-1.612-3.817-1.612
		c-1.489,0-2.762,0.522-3.817,1.568C480.662,28.354,480.139,29.701,480.139,31.357z"/>
</g>
</svg>
