<?xml version="1.0" encoding="utf-8"?>
<!DOCTYPE svg PUBLIC "-//W3C//DTD SVG 1.1//EN" "http://www.w3.org/Graphics/SVG/1.1/DTD/svg11.dtd">
<svg version="1.1" xmlns="http://www.w3.org/2000/svg" xmlns:xlink="http://www.w3.org/1999/xlink" x="0px" y="0px" width="32px"
	 height="32px" viewBox="0 0 32 32" enable-background="new 0 0 32 32" xml:space="preserve">
<g id="Capa_1">
	<circle fill="#FF9C10" cx="16" cy="16" r="16"/>
</g>
<g id="Capa_2">
	<path fill="#FFFFFF" d="M10.745,19.149c-1.162,0-2.104,0.941-2.104,2.104c0,1.162,0.941,2.104,2.104,2.104
		c1.163,0,2.105-0.942,2.105-2.104C12.85,20.091,11.907,19.149,10.745,19.149L10.745,19.149z M10.123,13.898
		c-0.817,0-1.478,0.661-1.478,1.478c0,0.816,0.661,1.478,1.478,1.478c2.771,0,5.026,2.255,5.026,5.026
		c0,0.816,0.662,1.479,1.479,1.479c0.814,0,1.479-0.662,1.479-1.479C18.107,17.479,14.525,13.898,10.123,13.898L10.123,13.898z
		 M10.152,8.64c-0.835,0-1.512,0.677-1.512,1.512c0,0.835,0.677,1.513,1.512,1.513c5.615,0,10.184,4.568,10.184,10.183
		c0,0.835,0.676,1.512,1.513,1.512c0.835,0,1.512-0.678,1.512-1.512C23.359,14.564,17.434,8.64,10.152,8.64L10.152,8.64z
		 M10.152,8.64"/>
</g>
</svg>
