<?xml version="1.0" encoding="utf-8"?>
<!-- Generator: Adobe Illustrator 16.0.3, SVG Export Plug-In . SVG Version: 6.00 Build 0)  -->
<!DOCTYPE svg PUBLIC "-//W3C//DTD SVG 1.1//EN" "http://www.w3.org/Graphics/SVG/1.1/DTD/svg11.dtd">
<svg version="1.1" id="Capa_1" xmlns="http://www.w3.org/2000/svg" xmlns:xlink="http://www.w3.org/1999/xlink" x="0px" y="0px"
	 width="32px" height="32px" viewBox="0 0 32 32" enable-background="new 0 0 32 32" xml:space="preserve">
<g>
	<circle fill="#D93C2E" cx="16" cy="16" r="16"/>
	<g>
		<path fill-rule="evenodd" clip-rule="evenodd" fill="#D93C2E" stroke="#FFFFFF" stroke-width="3" stroke-miterlimit="10" d="
			M24.014,12.594c0,0-0.168-1.178-0.656-1.691c-0.619-0.673-1.32-0.682-1.63-0.727c-2.285-0.168-5.714-0.168-5.714-0.168h-0.019
			c0,0-3.419,0-5.706,0.168c-0.327,0.044-1.018,0.053-1.638,0.727c-0.487,0.514-0.655,1.691-0.655,1.691s-0.169,1.382-0.169,2.745
			v0.178v1.125c0,1.381,0.169,2.746,0.169,2.746s0.168,1.178,0.655,1.699c0.62,0.684,1.436,0.656,1.808,0.727
			c1.302,0.133,5.555,0.178,5.555,0.178s3.429-0.018,5.714-0.178c0.31-0.043,1.011-0.043,1.63-0.727
			c0.488-0.521,0.656-1.699,0.656-1.699s0.159-1.365,0.159-2.746v-1.055v-0.249C24.173,13.976,24.014,12.594,24.014,12.594
			L24.014,12.594z"/>
		<polygon fill-rule="evenodd" clip-rule="evenodd" fill="#FFFFFF" points="18.21,16.01 13.79,18.393 13.79,14.724 13.79,13.609 
			15.792,14.699 		"/>
	</g>
</g>
</svg>
